<svg xmlns="http://www.w3.org/2000/svg" data-name="Layer 1" viewBox="0 0 100 125" x="0px" y="0px"><title>Artboard 4</title><path d="M4.06,98.43H95.94A3.41,3.41,0,0,0,99.35,95c0-17.31-21.83-24.22-31.21-26.39a.26.26,0,0,1-.19-.26V64.65a28.48,28.48,0,0,0,4.77-9.44c2.45-2.43,3.54-6.27,4.13-8.34,1-3.36,1.91-8.23-.72-11.72L76,35c1.27-6.11,2.85-20.55-8.12-27.87a6.76,6.76,0,0,0,1.93-4.93.65.65,0,0,0-.23-.46.69.69,0,0,0-.49-.15c-.14,0-13.86,1.56-20.47.19-6.78-1.41-14.24,3.74-15.77,9a10,10,0,0,0-6.5,3.67c-3,3.69-3.91,9.58-2.73,17.47.08,1,.2,2,.38,3l-.12.15c-2.63,3.48-1.67,8.35-.72,11.72.59,2.07,1.67,5.91,4.12,8.33a28.6,28.6,0,0,0,4.77,9.51v3.66a.25.25,0,0,1-.19.26C22.48,70.8.65,77.72.65,95A3.41,3.41,0,0,0,4.06,98.43ZM50,81.89a18,18,0,0,1-14.76-7.34,7,7,0,0,0,3.21-3.82,22.84,22.84,0,0,0,4.93,2.46,19.85,19.85,0,0,0,13.24,0,23.35,23.35,0,0,0,4.91-2.48,7,7,0,0,0,3.23,3.87A18,18,0,0,1,50,81.89ZM31.08,50.26a18.2,18.2,0,0,1-2-5c-1.21-4.27-.7-5.82-.29-6.36a1.39,1.39,0,0,1,1.2-.52h.29a.65.65,0,0,0,.68-.6c0-.09.76-9.29,6.21-12.6,2.72-1.66,6.22-1.59,10.39.19C56.07,29,62.43,28.74,66.3,27.88c4.41,3.26,3.14,8.46,2.84,9.48l0,.13a.65.65,0,0,0,.67.86,1.56,1.56,0,0,1,1.46.51c.41.54.92,2.09-.29,6.36-1.55,5.47-2.81,6-3.16,6a.64.64,0,0,0-.59.55c-.9,5.83-5.54,13.07-12.66,15.64a13.64,13.64,0,0,1-9.13,0,19.65,19.65,0,0,1-10.9-10.26A36.76,36.76,0,0,0,46.59,61a3.35,3.35,0,0,0,2.73,1.42H50.6a3.36,3.36,0,0,0,0-6.73H49.32a3.34,3.34,0,0,0-2.63,1.29A34.08,34.08,0,0,1,31.08,50.26Z"/></svg>